<?xml version="1.0" standalone="no"?>
<!DOCTYPE svg PUBLIC "-//W3C//DTD SVG 20010904//EN"
 "http://www.w3.org/TR/2001/REC-SVG-20010904/DTD/svg10.dtd">
<svg version="1.0" xmlns="http://www.w3.org/2000/svg"
 width="400.000000pt" height="400.000000pt" viewBox="0 0 400.000000 400.000000"
 preserveAspectRatio="xMidYMid meet">
<metadata>
Created by potrace 1.11, written by Peter Selinger 2001-2013
</metadata>
<g transform="translate(0.000000,400.000000) scale(0.100000,-0.100000)"
fill="#000000" stroke="none">
<path d="M3590 3648 c-47 -22 -112 -53 -145 -68 -33 -15 -105 -49 -160 -75
-100 -47 -181 -85 -307 -144 -38 -17 -98 -45 -135 -63 -38 -17 -104 -48 -148
-68 -44 -20 -123 -57 -175 -81 -52 -24 -153 -71 -225 -105 l-130 -61 -1 -196
c0 -108 0 -197 1 -197 3 0 150 67 245 113 47 22 91 40 98 40 6 0 12 3 12 7 0
3 19 14 43 25 23 10 87 39 142 65 130 61 193 90 286 133 90 41 136 63 322 151
76 36 139 66 141 66 2 0 52 23 110 50 58 28 111 50 116 50 10 0 11 20 11 250
0 162 1 150 -8 149 -5 0 -46 -19 -93 -41z"/>
<path d="M1835 3325 c-237 -112 -307 -145 -570 -268 -93 -43 -201 -94 -240
-112 -38 -18 -167 -78 -285 -133 -395 -184 -430 -201 -431 -214 -5 -52 -3
-378 3 -378 4 0 51 20 104 45 53 25 97 45 99 45 1 0 69 32 149 70 81 39 149
70 150 70 2 0 70 32 150 70 81 39 149 70 150 70 2 0 59 26 127 59 68 32 151
71 183 86 33 16 66 28 73 28 7 0 13 4 13 7 0 4 22 17 48 28 77 33 431 198 492
229 l35 18 0 190 c0 161 -2 190 -15 192 -8 1 -114 -45 -235 -102z"/>
<path d="M3610 3187 c-36 -18 -101 -49 -145 -69 -186 -85 -255 -120 -256 -131
-3 -60 0 -369 4 -373 3 -3 34 8 68 24 35 16 105 49 154 72 50 23 128 59 175
81 l85 40 -2 182 c-2 225 -2 207 -10 206 -5 0 -37 -15 -73 -32z"/>
<path d="M3450 2634 c-124 -58 -229 -109 -234 -114 -5 -5 -9 -93 -9 -197 l0
-188 24 4 c13 1 27 8 30 13 4 6 14 8 23 5 9 -4 16 -2 16 3 0 6 33 25 73 44 39
18 93 43 119 56 26 12 52 18 59 14 7 -4 9 -3 6 3 -4 6 23 24 63 42 47 21 70
37 71 48 4 120 -1 368 -7 370 -5 1 -110 -45 -234 -103z"/>
<path d="M2510 2667 c-74 -35 -153 -71 -175 -81 -22 -10 -69 -33 -105 -52
l-65 -33 -1 -188 c-1 -103 1 -191 3 -195 2 -5 25 4 51 18 26 15 47 25 47 23 0
-1 25 9 55 23 244 115 296 140 305 141 6 1 13 6 16 11 6 7 11 397 6 396 -1 0
-63 -29 -137 -63z"/>
<path d="M1160 2523 c-22 -12 -89 -43 -290 -136 -84 -38 -194 -89 -310 -144
-58 -27 -138 -65 -178 -83 -56 -25 -72 -38 -72 -54 -1 -41 -1 -272 -1 -323 l1
-51 47 23 c27 12 77 36 113 53 36 16 101 47 145 68 44 20 82 38 85 39 3 1 34
15 70 32 114 54 233 109 300 139 36 15 79 36 95 46 l31 17 -1 190 c0 105 -3
192 -5 194 -3 2 -16 -2 -30 -10z"/>
<path d="M2060 2462 c-8 -3 -67 -30 -130 -60 -63 -30 -142 -67 -175 -82 -33
-15 -96 -44 -140 -65 -44 -20 -105 -49 -135 -62 -30 -14 -111 -52 -179 -84
-68 -33 -125 -59 -126 -59 -3 0 -100 -45 -310 -144 -49 -24 -195 -92 -322
-151 -194 -90 -233 -112 -233 -129 -1 -32 -1 -328 -1 -355 1 -22 2 -23 26 -7
13 9 31 16 40 16 8 0 15 5 15 10 0 6 5 10 11 10 12 0 40 13 379 173 41 19 145
67 230 106 85 40 171 81 191 91 20 11 44 20 53 20 9 0 16 5 16 10 0 6 5 10 11
10 7 0 45 16 85 35 40 19 77 35 83 35 6 0 11 4 11 8 0 4 17 14 38 21 20 8 72
31 115 52 43 22 85 39 93 39 8 0 14 4 14 9 0 8 34 21 54 20 5 -1 12 4 15 10 5
8 86 48 111 56 25 7 180 87 181 92 4 35 3 357 -1 367 -3 7 -12 11 -20 8z"/>
<path d="M3530 2199 c-208 -98 -307 -145 -550 -257 -118 -55 -268 -125 -333
-156 -65 -31 -120 -56 -122 -56 -1 0 -54 -24 -116 -54 -63 -29 -144 -67 -180
-84 l-66 -30 1 -193 c1 -164 3 -194 16 -191 17 4 75 30 190 85 47 23 87 42 90
42 3 1 49 22 104 48 54 26 100 47 101 47 2 0 74 34 160 75 86 41 157 75 159
75 2 0 43 19 92 42 49 23 91 43 94 44 3 0 28 11 55 24 28 13 53 23 58 22 4 -1
7 2 7 8 0 5 4 10 9 10 5 0 58 23 118 51 59 28 128 60 153 72 25 11 47 21 50
22 19 4 70 38 71 48 0 13 0 292 0 345 -1 17 -4 32 -8 31 -5 0 -73 -32 -153
-70z"/>
<path d="M2470 2175 c-85 -41 -189 -90 -231 -110 l-76 -35 0 -195 c0 -107 2
-195 4 -195 2 0 17 7 33 15 17 9 32 16 35 16 5 0 120 53 265 121 47 22 99 46
117 54 l31 13 0 196 c-1 137 -4 195 -12 194 -6 0 -81 -34 -166 -74z"/>
<path d="M2010 1967 c-36 -17 -114 -54 -175 -82 -60 -29 -132 -62 -158 -74
-27 -12 -96 -45 -155 -73 -129 -60 -211 -98 -274 -127 -27 -12 -49 -25 -49
-29 -8 -36 -3 -382 5 -382 9 0 31 10 211 96 39 18 77 34 85 36 8 2 17 6 20 9
4 5 90 45 485 229 l80 37 -1 192 c0 105 -3 193 -5 195 -2 2 -33 -10 -69 -27z"/>
<path d="M2015 1494 c-95 -46 -346 -164 -350 -164 -2 0 -54 -24 -117 -54 -147
-69 -258 -122 -333 -156 -59 -27 -148 -69 -290 -135 -120 -56 -267 -124 -340
-158 -38 -18 -117 -55 -174 -82 l-103 -51 0 -188 c0 -103 3 -190 5 -193 3 -2
40 11 82 31 42 20 82 33 87 29 6 -3 8 -1 4 5 -6 10 30 28 47 24 4 -1 7 2 7 8
0 5 4 10 9 10 8 0 42 15 286 130 50 23 113 53 140 65 28 13 95 44 150 70 55
25 105 47 110 48 6 1 12 5 15 8 4 6 74 39 90 44 3 0 55 25 115 54 61 29 115
54 121 55 7 1 20 8 30 16 9 8 18 13 18 10 1 -2 30 10 66 27 177 86 326 155
336 157 6 1 22 9 35 17 24 16 24 16 23 205 0 103 -5 189 -10 190 -5 2 -31 -8
-59 -22z"/>
<path d="M2565 1270 c-33 -16 -112 -53 -175 -83 -63 -30 -140 -66 -171 -81
l-56 -26 0 -195 c0 -194 0 -195 21 -189 11 4 23 10 26 14 3 4 15 10 27 14 13
4 67 28 120 54 54 25 100 46 103 47 3 0 46 20 96 44 l91 43 1 194 c1 144 -2
194 -11 193 -7 0 -39 -13 -72 -29z"/>
</g>
</svg>
